With: Alice Darling, Ryan Corr and Penelope Mitchell

Aan het einde van de zomer breken zeven eigenwijze laatstejaars schoolvrienden in in een luxueus herenhuis aan het strand van de slaperige badplaats Oak Bay. Het feesten kan beginnen. Muziek, alcohol, drugs; ze laten hun passie de vrije loop. Later ontwaakt één van de zeven uit een drugsslaap. Ze is helemaal alleen. Tot haar mobiele telefoon gaat. Een pictogram met een sinistere smiley verschijnt en een sinistere stem brengt een huiverig bericht: "Het lot van uw vrienden ligt in uw handen Brie, en er zijn slechts twee regels. Geen ouders en geen autoriteiten". Vervolgens verschijnen er live videobeelden van haar zes vrienden, bewusteloos en opgesloten in een koffer die lijkt op een doodskist. Is dit een grap, of is er iets boosaardigs aan de gang?

Everyone's primal fears of death and how horribly it can play out in your own
 
http://www.imdb.com/title/tt2178915	

------------------------ Dutch Friends ------------------------
---------------------------------------------------------------
- Bezoek ook eens mijn vrienden op:  http://www.Film-Test.nl --
----- voor mijn Nederlandse Sync. ondertitels ---- en meer ----
------- http://www.Film-Test.nl ---- Over Films en meer -------
---------------------------------------------------------------

General:

Complete name                    : 6 Plots6 Plots.avi
Format                           : AVI
Format/Info                      : Audio Video Interleave
File size                        : 1.23 GiB
Duration                         : 1h 26mn
Overall bit rate                 : 2 042 Kbps

Video:

Format                           : MPEG-4 Visual
Format profile                   : Simple@L3
Format settings, BVOP            : No
Format settings, QPel            : No
Format settings, GMC             : No warppoints
Format settings, Matrix          : Default (H.263)
Codec ID                         : XVID
Codec ID/Hint                    : XviD
Duration                         : 1h 26mn
Bit rate                         : 1 583 Kbps
Width                            : 704 pixels
Height                           : 396 pixels
Display aspect ratio             : 16:9
Frame rate                       : 25.000 fps
Color space                      : YUV
Chroma subsampling               : 4:2:0
Bit depth                        : 8 bits
Scan type                        : Progressive
Compression mode                 : Lossy
Bits/(Pixel*Frame)               : 0.227
Stream size                      : 980 MiB (78%)
Writing library                  : XviD 1.1.2 (UTC 2006-11-01)

Audio:

Format                           : AC-3
Format/Info                      : Audio Coding 3
Mode extension                   : CM (complete main)
Codec ID                         : 2000
Duration                         : 1h 26mn
Bit rate mode                    : Constant
Bit rate                         : 448 Kbps
Channel(s)                       : 6 channels
Channel positions                : Front: L C R, Side: L R, LFE
Sampling rate                    : 48.0 KHz
Bit depth                        : 16 bits
Compression mode                 : Lossy
Stream size                      : 277 MiB (22%)
Alignment                        : Aligned on interleaves
Interleave, duration             : 32 ms (0.80 video frame)
Interleave, preload duration     : 288 ms